# xmcd
#
# Track frame offsets: 
#        150
#        14012
#        25749
#        36795
#        49256
#        61313
#        80510
#        93877
#        105017
#        115149
#        126630
#        139738
#        151802
#        166843
#        179331
#        195582
#        205863
#        218814
#        235382
#        248122
#
# Disc length: 3453 seconds
#
# Revision: 3
# Processed by: cddbd v1.5.2PL0 Copyright (c) Steve Scherf et al.
# Submitted via: ExactAudioCopy v1.3
#
DISCID=0b0d7b14
DTITLE=Various Artist - 100 Hits - Classic 60's CD4
DYEAR=2011
DGENRE=Pop
TTITLE0=Glen Campbell - Wichita LineMan
TTITLE1=Danny Williams - Moon River
TTITLE2=Little Anthony and The Imperials - Going Out Of My Head
TTITLE3=Matt Monro - Portrait Of My Love
TTITLE4=Shirley Bassey - I (Who Have Nothing)
TTITLE5=The Hollies - He Ain't Heavy, He's My Brother
TTITLE6=Cilla Black - You're My World
TTITLE7=Bobby Vee - More Than I Can Say
TTITLE8=Craig Douglas - When My Little Girl Is Smiling
TTITLE9=Bobbie Gentry And Glen Campbell - All I Have To Do Is Dream
TTITLE10=Donovan - Catch The Wind
TTITLE11=Helen Shapiro - You Don't Know
TTITLE12=Lulu - Let's Pretend
TTITLE13=Michael Holliday - Skylark
TTITLE14=P.J. Proby - Maria
TTITLE15=The Swinging Blue Jeans - You're No Good
TTITLE16=Vince Hill - Roses Of Picardy
TTITLE17=Vikki Carr - With Pen In Hand
TTITLE18=Ken Dodd - Tears
TTITLE19=Gerry and The Pacemakers - Ferry Cross The Mersey
EXTD=
EXTT0=
EXTT1=
EXTT2=
EXTT3=
EXTT4=
EXTT5=
EXTT6=
EXTT7=
EXTT8=
EXTT9=
EXTT10=
EXTT11=
EXTT12=
EXTT13=
EXTT14=
EXTT15=
EXTT16=
EXTT17=
EXTT18=
EXTT19=
PLAYORDER=
